<?xml version="1.0" encoding="UTF-8"?>
<svg width="400px" height="400px" viewBox="0 0 400 400" version="1.1" xmlns="http://www.w3.org/2000/svg" xmlns:xlink="http://www.w3.org/1999/xlink">
    <!-- Generator: Sketch 52.6 (67491) - http://www.bohemiancoding.com/sketch -->
    <title>Original</title>
    <desc>Created with Sketch.</desc>
    <defs>
        <radialGradient cx="-87.8296764%" cy="-90.9380541%" fx="-87.8296764%" fy="-90.9380541%" r="395.64949%" gradientTransform="translate(-0.878297,-0.909381),rotate(45.360000),scale(1.000000,1.007432),translate(0.878297,0.909381)" id="radialGradient-1">
            <stop stop-color="#FFE255" offset="0%"></stop>
            <stop stop-color="#FAB000" offset="100%"></stop>
        </radialGradient>
        <circle id="path-2" cx="199.5" cy="199.5" r="70.5"></circle>
        <filter x="-7.1%" y="-7.1%" width="119.9%" height="119.9%" filterUnits="objectBoundingBox" id="filter-3">
            <feMorphology radius="2" operator="dilate" in="SourceAlpha" result="shadowSpreadOuter1"></feMorphology>
            <feOffset dx="4" dy="4" in="shadowSpreadOuter1" result="shadowOffsetOuter1"></feOffset>
            <feGaussianBlur stdDeviation="2" in="shadowOffsetOuter1" result="shadowBlurOuter1"></feGaussianBlur>
            <feColorMatrix values="0 0 0 0 0   0 0 0 0 0   0 0 0 0 0  0 0 0 0.05 0" type="matrix" in="shadowBlurOuter1"></feColorMatrix>
        </filter>
    </defs>
    <g id="Original" stroke="none" stroke-width="1" fill="none" fill-rule="evenodd">
        <path d="M262.257812,320.647461 C250.479664,342.042129 228.284596,351 204.5,351 C183.677398,351 154.402344,341.1875 138.34375,320.647461 C122.108962,299.882057 108.724609,271.632813 78.671875,258.046875 C48.6191406,244.460938 43.9746094,219.195313 43.9746094,209.115234 C43.9746094,182.216797 66.671875,178.296875 72.671875,164.578125 C78.671875,150.859375 72.8066406,145.849609 66.6953125,132.585938 C60.5839844,119.322266 52.171875,88.1582031 73.7539062,72.234375 C95.3359375,56.3105469 105.433594,66.1171875 121.888672,78.2714844 C138.34375,90.4257813 147.492188,91.9472656 165.455078,90.4257812 C194.238404,87.9877894 194.971477,49.5218633 233.974609,49.2675781 C251.304454,49.1545943 264.240234,63.9726563 270.298828,84.3261719 C276.357422,104.679688 272.367187,113.714844 284.570312,132.585938 C296.773437,151.457031 355.600586,163 359.691406,201 C362.851789,230.357081 325.002534,257.533917 302.367187,271.632813 C285.528654,282.121043 278.50293,291.138672 262.257812,320.647461 Z" id="Combined-Shape" stroke="#494231" stroke-width="4" fill="#FFFFFF"></path>
        <g id="Egg-Yolk" fill-rule="nonzero">
            <use fill="black" fill-opacity="1" filter="url(#filter-3)" xlink:href="#path-2"></use>
            <use fill="url(#radialGradient-1)" xlink:href="#path-2"></use>
        </g>
        <ellipse id="Oval" fill="#FFFFFF" cx="177.188825" cy="148.7809" rx="10.1888246" ry="7.78090023"></ellipse>
        <ellipse id="Oval" fill="#FFFFFF" cx="158.331458" cy="160.912957" rx="5.33145809" ry="4.91295705"></ellipse>
    </g>
</svg>